<?xml version="1.0" encoding="UTF-8" standalone="no"?>
<!-- Created with Inkscape (http://www.inkscape.org/) -->

<svg
   version="1.1"
   id="svg1"
   width="1778.6667"
   height="1390.6667"
   viewBox="0 0 1778.6667 1390.6667"
   sodipodi:docname="SIRIUS Revisi.eps"
   xmlns:inkscape="http://www.inkscape.org/namespaces/inkscape"
   xmlns:sodipodi="http://sodipodi.sourceforge.net/DTD/sodipodi-0.dtd"
   xmlns="http://www.w3.org/2000/svg"
   xmlns:svg="http://www.w3.org/2000/svg">
  <defs
     id="defs1">
    <clipPath
       clipPathUnits="userSpaceOnUse"
       id="clipPath12">
      <path
         d="m 3059.1,5983.58 642.85,225 -39.03,167.15 -661.68,276.43 2110.87,-149.09 754.7,-204.74 -212.76,192.7 413.48,-12.05 329.18,317.14 -40.14,-148.54 256.92,277 148.53,24.08 160.58,148.54 -971.48,-92.34 -272.98,-289.03 -674.42,-124.45 220.79,429.54 16.06,-152.55 493.77,501.81 1678.02,164.59 -108.39,-260.94 1495.85,747.62 206.25,-611.13 -76.28,-718.58 -293.05,-473.69 -409.46,497.78 305.09,-4.01 -104.38,409.46 192.7,-24.08 -144.53,144.51 353.28,-56.2 -8.04,212.77 -163.02,250.3 -1093.49,-832.39 1469.27,-1715.2 -293.04,683.5 533.91,790.84 72.26,834.99 1019.61,-92.33 L 9756.75,7041 10057.8,7012.9 11117.6,5672.09 9997.62,5764.42 10511.5,5507.5 10383,2444.53 9142.55,3974 l 168.6,-477.71 -164.59,-509.83 -682.44,1260.52 -64.23,-541.95 -497.78,1262.53 608.18,-54.19 -2059.38,993.56 1041.73,-776.79 214.1,-1089.9 -2110.9,1439.16 228.82,-415.49 -975.49,481.73 186.67,-331.19 -1666.69,268.39 z"
         transform="translate(0,2.5000001e-4)"
         id="path12" />
    </clipPath>
    <clipPath
       clipPathUnits="userSpaceOnUse"
       id="clipPath14">
      <path
         d="m 3059.1,5983.58 642.85,225 -39.03,167.15 -661.68,276.43 2110.87,-149.09 754.7,-204.74 -212.76,192.7 413.48,-12.05 329.18,317.14 -40.14,-148.54 256.92,277 148.53,24.08 160.58,148.54 -971.48,-92.34 -272.98,-289.03 -674.42,-124.45 220.79,429.54 16.06,-152.55 493.77,501.81 1678.02,164.59 -108.39,-260.94 1495.85,747.62 206.25,-611.13 -76.28,-718.58 -293.05,-473.69 -409.46,497.78 305.09,-4.01 -104.38,409.46 192.7,-24.08 -144.53,144.51 353.28,-56.2 -8.04,212.77 -163.02,250.3 -1093.49,-832.39 1469.27,-1715.2 -293.04,683.5 533.91,790.84 72.26,834.99 1019.61,-92.33 L 9756.75,7041 10057.8,7012.9 11117.6,5672.09 9997.62,5764.42 10511.5,5507.5 10383,2444.53 9142.55,3974 l 168.6,-477.71 -164.59,-509.83 -682.44,1260.52 -64.23,-541.95 -497.78,1262.53 608.18,-54.19 -2059.38,993.56 1041.73,-776.79 214.1,-1089.9 -2110.9,1439.16 228.82,-415.49 -975.49,481.73 186.67,-331.19 -1666.69,268.39 z"
         transform="translate(0,2.5000001e-4)"
         id="path14" />
    </clipPath>
  </defs>
  <sodipodi:namedview
     id="namedview1"
     pagecolor="#ffffff"
     bordercolor="#000000"
     borderopacity="0.25"
     inkscape:showpageshadow="2"
     inkscape:pageopacity="0.0"
     inkscape:pagecheckerboard="0"
     inkscape:deskcolor="#d1d1d1">
    <inkscape:page
       x="0"
       y="0"
       inkscape:label="1"
       id="page1"
       width="1778.6667"
       height="1390.6667"
       margin="0"
       bleed="0" />
  </sodipodi:namedview>
  <g
     id="g1"
     inkscape:groupmode="layer"
     inkscape:label="1">
    <g
       id="group-R5">
      <path
         id="path2"
         d="M 11412.3,385.199 9398.11,10039.9 2044.03,3468.24 Z"
         style="fill:#93d8f6;fill-opacity:1;fill-rule:nonzero;stroke:none"
         transform="matrix(0.13333333,0,0,-0.13333333,0,1390.6667)" />
      <path
         id="path3"
         d="M 9526.51,10430 1641.95,3384.36 11685.9,79 9526.51,10430 Z M 9230.85,9531.63 11055.7,784.18 2567.79,3577.5 9230.85,9531.63"
         style="fill:#161727;fill-opacity:1;fill-rule:nonzero;stroke:none"
         transform="matrix(0.13333333,0,0,-0.13333333,0,1390.6667)" />
      <path
         id="path4"
         d="m 10419.9,7023.12 1068.2,484.91 -2347.03,212.52 -154.83,766.11 -1345.58,-637.73 -2039.45,-200.04 -136.25,-138.47 -53.6,509.18 -624.34,-1214.64 -987.36,34.44 -1910.56,95.61 1133.59,-1551.62 460.7,-839.8 477.08,-336.72 391.11,-996.39 106.97,-272.51 795.35,-277.91 1206.22,596.34 888.33,676.68 779.69,-531.57 18.84,271.41 244.89,-409.47 146.67,236.18 675.83,-1248.3 270.9,839.12 1155.63,-1424.98 157,3741.62 962,-79.31 -1340,1695.34"
         style="fill:#161727;fill-opacity:1;fill-rule:nonzero;stroke:none"
         transform="matrix(0.13333333,0,0,-0.13333333,0,1390.6667)" />
      <path
         id="path5"
         d="m 3059.1,5983.58 642.85,225 -39.03,167.15 -661.68,276.43 2110.87,-149.09 754.7,-204.74 -212.76,192.7 413.48,-12.05 329.18,317.14 -40.14,-148.54 256.92,277 148.53,24.08 160.58,148.54 -971.48,-92.34 -272.98,-289.03 -674.42,-124.45 220.79,429.54 16.06,-152.55 493.77,501.81 1678.02,164.59 -108.39,-260.94 1495.85,747.62 122.13,-617.15 -285.21,-1186.25 -589.07,543.4 443.57,-141.44 -225,385.72 154.69,-30.08 -128.98,190.8 347.14,-122.15 77.15,321.43 -57.86,282.85 -1093.49,-832.39 1469.27,-1715.2 -293.04,683.5 606.17,1625.83 1019.61,-92.33 L 9756.75,7041 10057.8,7012.9 11117.6,5672.09 9997.62,5764.42 10511.5,5507.5 10383,2444.53 9142.55,3974 l 168.6,-477.71 -164.59,-509.83 -682.44,1260.52 -64.23,-541.95 -497.78,1262.53 608.18,-54.19 -2059.38,993.56 1041.73,-776.79 214.1,-1089.9 -2110.9,1439.16 228.82,-415.49 -975.49,481.73 186.67,-331.19 -1666.69,268.39 -310.05,500.74"
         style="fill:#293e99;fill-opacity:1;fill-rule:nonzero;stroke:none"
         transform="matrix(0.13333333,0,0,-0.13333333,0,1390.6667)" />
      <path
         id="path6"
         d="M 4945.18,5449.29 6077.57,4826.06 5752.4,5307.78 7140.38,4139.59 6306.39,3504.32 5234.55,2974.42 4734.76,3149.05 6101.66,4269.06 4945.18,5449.29"
         style="fill:#ffffff;fill-opacity:1;fill-rule:nonzero;stroke:none"
         transform="matrix(0.13333333,0,0,-0.13333333,0,1390.6667)" />
      <path
         id="path7"
         d="m 2801.44,6666.84 -326.27,17.8 368.57,-521.06 -147.69,395.03 105.39,108.23"
         style="fill:#ffffff;fill-opacity:1;fill-rule:nonzero;stroke:none"
         transform="matrix(0.13333333,0,0,-0.13333333,0,1390.6667)" />
      <path
         id="path8"
         d="m 3441.85,5358.99 1409.05,-225.86 -1047.76,17.12 -120.43,-293.06 -240.86,501.8"
         style="fill:#ffffff;fill-opacity:1;fill-rule:nonzero;stroke:none"
         transform="matrix(0.13333333,0,0,-0.13333333,0,1390.6667)" />
      <path
         id="path9"
         d="m 4489.88,3652.86 168.6,-429.54 1136.07,895.2 -1007.6,-598.14 -297.07,132.48"
         style="fill:#ffffff;fill-opacity:1;fill-rule:nonzero;stroke:none"
         transform="matrix(0.13333333,0,0,-0.13333333,0,1390.6667)" />
      <path
         id="path10"
         d="m 5637.99,6555.25 401.44,-16.06 337.21,329.18 -439.07,-52.18 -299.58,-260.94"
         style="fill:#ffffff;fill-opacity:1;fill-rule:nonzero;stroke:none"
         transform="matrix(0.13333333,0,0,-0.13333333,0,1390.6667)" />
      <path
         id="path11"
         d="m 6450.91,5906.93 2724.77,-1314.58 -2035.3,1863.99 424.51,359.85 1093.49,832.39 141.44,372.87 -5233.25,-588.05 -966.46,-2402.61 4227.15,-1807.47 1572.63,481.71 -333.29,1247.88 -164.49,14.65 -63.23,-1201.31 -132.14,273.99 -1255.83,1866.69"
         style="fill:#6985cc;fill-opacity:1;fill-rule:nonzero;stroke:none"
         transform="matrix(0.13333333,0,0,-0.13333333,0,1390.6667)"
         clip-path="url(#clipPath12)" />
      <path
         id="path13"
         d="M 7412.36,7534.77 7101.24,6785.78 8799.82,8021.45 4066.36,7484.59 2853.39,6703.78 c 0,0 -27.48,-1332.77 8.66,-1332.77 36.13,0 2173.79,-156.56 2173.79,-156.56 l -1501.03,357.71 -212.14,353.57 630,276.43 77.14,173.57 1180.65,-23.21 1107.97,-258.92 433.55,192.69 -427.53,-102.37 -439.57,210.76 h 222.8 l 289.03,401.44 -718.57,-80.29 -293.05,46.16 487.74,529.9 692.17,159.76 793.33,225.63 54.03,-142.51"
         style="fill:#93d8f6;fill-opacity:1;fill-rule:nonzero;stroke:none"
         transform="matrix(0.13333333,0,0,-0.13333333,0,1390.6667)"
         clip-path="url(#clipPath14)" />
      <path
         id="path15"
         d="m 5342.99,5043.3 821.86,-302.32 -48.18,151.16 436.5,-258.32 -800.77,673.96 325.17,-481.72 -1132.39,623.23 397.81,-405.99"
         style="fill:#b0b0ae;fill-opacity:1;fill-rule:nonzero;stroke:none"
         transform="matrix(0.13333333,0,0,-0.13333333,0,1390.6667)" />
      <path
         id="path16"
         d="m 12442,2157.6 -745.5,-199.79 -359,-96.2 L 5356.83,259.102 4968.2,155 4389.98,0 l 482.68,354.199 377.48,276.883 338.62,248.5 199.98,718.258 -403.53,-108.2 188.65,644.64 -369.15,41.03 -383.29,42.52 -592.83,65.85 576.07,154.36 347.69,93.21 6063.15,1624.59 301.7,80.83 745.1,199.71 -657.2,-403.99 -823.9,-506.47 210.9,56.48 -351.6,-1375.34 760.5,-20.89 269.5,-7.4 771.5,-21.17"
         style="fill:#161727;fill-opacity:1;fill-rule:nonzero;stroke:none"
         transform="matrix(0.13333333,0,0,-0.13333333,0,1390.6667)" />
      <path
         id="path17"
         d="m 5392.34,488.82 379.98,270.59 317.16,1139.15 -398.31,-106.72 157.16,536.92 -455.99,46.6 879.33,235.61 -169.69,-559.05 376.88,100.99 L 6101.98,678.969 5392.34,488.82"
         style="fill:#ffffff;fill-opacity:1;fill-rule:nonzero;stroke:none"
         transform="matrix(0.13333333,0,0,-0.13333333,0,1390.6667)" />
      <path
         id="path18"
         d="m 6578.86,806.75 v 1886.54 l 317.94,85.19 V 891.941 L 6578.86,806.75"
         style="fill:#ffffff;fill-opacity:1;fill-rule:nonzero;stroke:none"
         transform="matrix(0.13333333,0,0,-0.13333333,0,1390.6667)" />
      <path
         id="path19"
         d="m 7404.06,2550.82 v -292.39 c 19.04,13.57 38.68,32.38 58.94,56.48 20.23,24.05 38.68,51.04 55.37,80.93 16.66,29.9 30.96,62.09 42.87,96.66 11.89,34.54 19.04,69.94 21.44,106.18 z m 409.03,-1413.36 c -5.97,91.6 -20.85,179.14 -44.65,262.62 -23.84,83.44 -53.9,158.02 -90.21,223.73 -36.33,65.67 -78.31,119.69 -125.92,162.03 -47.64,42.3 -97.06,66.79 -148.25,73.42 v -831.4 L 7086.12,942.672 V 2829.2 l 905.58,242.66 c -2.4,-97.27 -12.8,-190.74 -31.25,-280.43 -18.48,-89.73 -41.7,-172.62 -69.67,-248.76 -27.99,-76.15 -59.24,-143.88 -93.77,-203.09 -34.55,-59.28 -69.07,-107.1 -103.59,-143.45 60.72,-26.12 118.78,-70.31 174.15,-132.58 55.37,-62.32 104.48,-136.88 147.35,-223.67 42.87,-86.84 77.08,-182.75 102.71,-287.76 25.58,-105.01 38.4,-212.6 38.4,-322.77 l -342.94,-91.89"
         style="fill:#ffffff;fill-opacity:1;fill-rule:nonzero;stroke:none"
         transform="matrix(0.13333333,0,0,-0.13333333,0,1390.6667)" />
      <path
         id="path20"
         d="m 8282.84,1263.33 v 1886.54 l 317.94,85.18 V 1348.52 l -317.94,-85.19"
         style="fill:#ffffff;fill-opacity:1;fill-rule:nonzero;stroke:none"
         transform="matrix(0.13333333,0,0,-0.13333333,0,1390.6667)" />
      <path
         id="path21"
         d="m 8790.1,1399.25 v 1886.54 l 319.73,85.67 V 1922.23 l 342.94,91.89 v 1449.22 l 317.93,85.2 V 1662 l -980.6,-262.75"
         style="fill:#ffffff;fill-opacity:1;fill-rule:nonzero;stroke:none"
         transform="matrix(0.13333333,0,0,-0.13333333,0,1390.6667)" />
      <path
         id="path22"
         d="m 9942.17,1707.94 367.93,1321.54 -398.29,-106.73 210.79,720.07 875.7,234.67 -561.8,-319.32 -113.9,-375.33 376.9,100.98 -330.6,-1292.74 629.4,-0.14 -1056.13,-283"
         style="fill:#ffffff;fill-opacity:1;fill-rule:nonzero;stroke:none"
         transform="matrix(0.13333333,0,0,-0.13333333,0,1390.6667)" />
      <path
         id="path23"
         d="m 10555.3,2926.16 -239,-64.03 -300.6,-1079.85 567.9,152.18 -281.9,0.07 253.6,991.63"
         style="fill:#93d8f6;fill-opacity:1;fill-rule:nonzero;stroke:none"
         transform="matrix(0.13333333,0,0,-0.13333333,0,1390.6667)" />
      <path
         id="path24"
         d="m 9507.4,2645.39 v -671.27 l -452.21,-121.18 v 671.27 l -210.45,-56.38 v -999.3 L 9716.06,1702 v 999.29 l -208.66,-55.9"
         style="fill:#93d8f6;fill-opacity:1;fill-rule:nonzero;stroke:none"
         transform="matrix(0.13333333,0,0,-0.13333333,0,1390.6667)" />
      <path
         id="path25"
         d="m 8337.48,2331.91 v -999.3 l 208.65,55.91 v 999.3 l -208.65,-55.91"
         style="fill:#93d8f6;fill-opacity:1;fill-rule:nonzero;stroke:none"
         transform="matrix(0.13333333,0,0,-0.13333333,0,1390.6667)" />
      <path
         id="path26"
         d="m 7964.84,1804.61 c -41.13,83.28 -88.78,155.68 -141.65,215.17 -51.5,57.92 -105.68,99.36 -161.05,123.16 l -11.46,4.94 -509.92,-136.63 v -999.3 l 208.67,55.91 v 857.27 l 74.81,-9.69 c 59.16,-7.65 116.14,-35.5 169.41,-82.8 50.52,-44.92 95.54,-102.76 133.82,-171.94 37.61,-68.08 69.16,-146.29 93.78,-232.47 20.24,-70.97 34.39,-145.65 42.2,-222.64 l 236.84,63.47 c -3.54,87.05 -15.58,173.12 -35.92,256.6 -24.76,101.47 -58.25,195.33 -99.53,278.95"
         style="fill:#93d8f6;fill-opacity:1;fill-rule:nonzero;stroke:none"
         transform="matrix(0.13333333,0,0,-0.13333333,0,1390.6667)" />
      <path
         id="path27"
         d="M 6633.5,1875.33 V 876.031 l 208.66,55.91 v 999.299 l -208.66,-55.91"
         style="fill:#93d8f6;fill-opacity:1;fill-rule:nonzero;stroke:none"
         transform="matrix(0.13333333,0,0,-0.13333333,0,1390.6667)" />
      <path
         id="path28"
         d="m 6095.69,1731.22 -278.28,-999.478 -167.46,-119.25 410.37,109.957 274.32,1072.791 -238.95,-64.02"
         style="fill:#93d8f6;fill-opacity:1;fill-rule:nonzero;stroke:none"
         transform="matrix(0.13333333,0,0,-0.13333333,0,1390.6667)" />
    </g>
  </g>
</svg>
